<?xml version="1.0" encoding="UTF-8"?>
<svg version="1.1" xmlns="http://www.w3.org/2000/svg" width="500" height="500">
<path d="M0 0 C1.97338867 0.23925781 1.97338867 0.23925781 4 1 C5.20093098 3.67166015 6.10304304 6.22092922 7 9 C7.79888799 11.2161146 8.60560538 13.42941455 9.41796875 15.640625 C9.86358154 16.86604004 10.30919434 18.09145508 10.76831055 19.35400391 C15.30842291 31.825833 19.98746995 44.22111006 24.98956299 56.51611328 C31.37139086 72.20411491 37.39884405 87.99526516 43.22631836 103.8972168 C48.16869999 117.45672931 48.16869999 117.45672931 53.91577148 130.68823242 C55.75092072 134.60109622 57.3413502 138.61000988 58.9375 142.625 C59.27740967 143.47674805 59.61731934 144.32849609 59.9675293 145.20605469 C62.95650637 152.76232341 65.70545166 160.39298579 68.31494141 168.08789062 C68.796973 169.4333188 69.31879539 170.76482223 69.86865234 172.08398438 C70.29525146 173.11749023 70.29525146 173.11749023 70.73046875 174.171875 C70.99625732 174.78643555 71.2620459 175.40099609 71.53588867 176.03417969 C72.1389509 178.58854952 71.64450278 180.48499967 71 183 C66.51608964 183.14854953 62.03348882 183.25730304 57.54785156 183.32958984 C56.02285817 183.35972677 54.49803763 183.40064608 52.97363281 183.45263672 C50.77886359 183.52560493 48.58638749 183.5594814 46.390625 183.5859375 C45.37165131 183.63238907 45.37165131 183.63238907 44.33209229 183.67977905 C42.39160156 183.68115234 42.39160156 183.68115234 39 183 C35.919308 179.46207556 34.38831748 175.84524418 33.03515625 171.39453125 C31.03709408 165.07559887 28.76698247 158.89071282 26.4375 152.6875 C17.47156836 128.62149417 9.00425841 104.40264169 1 80 C0.6282666 81.15072998 0.2565332 82.30145996 -0.12646484 83.48706055 C-20.96222355 147.9386076 -20.96222355 147.9386076 -28.44580078 164.98413086 C-30.49660325 169.66734635 -32.14192826 174.27223532 -33.234375 179.28515625 C-34 181 -34 181 -35.59960938 182.0949707 C-38.87100061 183.328397 -41.67933277 183.2239399 -45.171875 183.1953125 C-45.8542926 183.1924826 -46.53671021 183.18965271 -47.23980713 183.18673706 C-49.41005307 183.17558098 -51.57987971 183.15048557 -53.75 183.125 C-55.22525444 183.11496426 -56.70051537 183.10583944 -58.17578125 183.09765625 C-61.78398942 183.07565687 -65.39195375 183.04115883 -69 183 C-70.15866276 179.61728166 -69.85554561 177.79396128 -68.5859375 174.484375 C-68.24425537 173.58098389 -67.90257324 172.67759277 -67.55053711 171.74682617 C-66.96864624 170.26339722 -66.96864624 170.26339722 -66.375 168.75 C-65.76700562 167.16312378 -65.76700562 167.16312378 -65.14672852 165.54418945 C-61.60850301 156.3823468 -57.86788149 147.30287812 -54.12805176 138.2220459 C-48.27013877 123.97332686 -42.92170293 109.54342708 -37.64428711 95.07104492 C-34.4687592 86.39714692 -31.15973411 77.84915451 -27.38858032 69.41572571 C-25.00849962 64.0844186 -22.93548549 58.69306831 -21 53.1875 C-20.32186328 51.29548376 -19.64347342 49.40355824 -18.96484375 47.51171875 C-18.63468262 46.58536621 -18.30452148 45.65901367 -17.96435547 44.70458984 C-13.90979195 33.33333549 -9.68304753 22.05528725 -5.125 10.875 C-4.73127197 9.90755859 -4.33754395 8.94011719 -3.93188477 7.94335938 C-3.56506592 7.05197266 -3.19824707 6.16058594 -2.8203125 5.2421875 C-2.49305176 4.4466748 -2.16579102 3.65116211 -1.82861328 2.83154297 C-1 1 -1 1 0 0 Z " fill="#F29800" transform="translate(77,132)"/>
<path d="M0 0 C1.28715408 -0.00639748 1.28715408 -0.00639748 2.60031128 -0.01292419 C3.54375397 -0.01247101 4.48719666 -0.01201782 5.45922852 -0.0115509 C6.45117218 -0.01490952 7.44311584 -0.01826813 8.46511841 -0.02172852 C11.75613647 -0.03125638 15.04710376 -0.03318244 18.33813477 -0.03425598 C20.61735048 -0.03746689 22.89656598 -0.04083083 25.17578125 -0.04434204 C29.95744302 -0.05033763 34.73908669 -0.05218146 39.52075195 -0.05158997 C45.66139909 -0.05148823 51.80193089 -0.06515049 57.94255066 -0.08236217 C62.65043678 -0.0934548 67.35829477 -0.09551003 72.06619263 -0.09498024 C74.33090615 -0.09616411 76.59562032 -0.1006085 78.86032104 -0.10831261 C82.02097775 -0.11805894 85.18138063 -0.11525591 88.34204102 -0.10920715 C89.75720505 -0.11763641 89.75720505 -0.11763641 91.20095825 -0.12623596 C92.05906097 -0.12204147 92.9171637 -0.11784698 93.80126953 -0.11352539 C94.54901138 -0.11407016 95.29675323 -0.11461493 96.06715393 -0.1151762 C97.90063477 0.13371277 97.90063477 0.13371277 99.90063477 2.13371277 C100.14355469 4.82341003 100.14355469 4.82341003 100.13110352 8.20011902 C100.12916992 9.40732605 100.12723633 10.61453308 100.12524414 11.85832214 C100.11299805 13.12482605 100.10075195 14.39132996 100.08813477 15.69621277 C100.08716797 17.60176941 100.08716797 17.60176941 100.08618164 19.54582214 C100.0407353 28.99361224 100.0407353 28.99361224 98.90063477 30.13371277 C87.02124084 31.83076904 74.89350676 30.54726008 62.90063477 30.13371277 C62.90063477 78.64371277 62.90063477 127.15371277 62.90063477 177.13371277 C58.86713875 179.15046077 57.28309497 179.3812368 52.92797852 179.36418152 C51.78135742 179.36224792 50.63473633 179.36031433 49.45336914 179.35832214 C48.2603418 179.34607605 47.06731445 179.33382996 45.83813477 179.32121277 C44.64124023 179.32056824 43.4443457 179.31992371 42.21118164 179.31925964 C33.32221512 179.27423955 33.32221512 179.27423955 29.90063477 178.13371277 C29.87729194 159.27987542 29.85964877 140.42604099 29.84882259 121.57219219 C29.84366259 112.81836146 29.83662548 104.0645397 29.82519531 95.31071472 C29.81523949 87.68239534 29.80877919 80.05408245 29.80654627 72.42575675 C29.8052407 68.38526691 29.80216448 64.34479565 29.79490471 60.30431175 C29.78813034 56.5032826 29.78602071 52.70227973 29.78752708 48.90124512 C29.7872514 47.5044166 29.78525465 46.10758723 29.78142929 44.71076393 C29.77647005 42.80692807 29.77824237 40.90307818 29.78038025 38.99923706 C29.77945846 37.93272258 29.77853666 36.8662081 29.77758694 35.76737499 C29.90063477 33.13371277 29.90063477 33.13371277 30.90063477 30.13371277 C18.69063477 30.13371277 6.48063477 30.13371277 -6.09936523 30.13371277 C-6.28499023 25.90558777 -6.47061523 21.67746277 -6.66186523 17.32121277 C-6.72317627 15.99114197 -6.7844873 14.66107117 -6.84765625 13.29069519 C-6.89075928 12.24244568 -6.9338623 11.19419617 -6.97827148 10.11418152 C-7.02540283 9.04063416 -7.07253418 7.96708679 -7.12109375 6.86100769 C-7.09936523 4.13371277 -7.09936523 4.13371277 -6.09936523 1.13371277 C-3.81242607 -0.00975681 -2.54146069 0.00569594 0 0 Z " fill="#E59701" transform="translate(389.099365234375,135.8662872314453)"/>
<path d="M0 0 C2.04350408 0.00317466 4.08557946 -0.02037046 6.12890625 -0.0456543 C7.4128125 -0.04629883 8.69671875 -0.04694336 10.01953125 -0.04760742 C11.19854004 -0.05058838 12.37754883 -0.05356934 13.59228516 -0.05664062 C14.52476074 0.06622314 15.45723633 0.18908691 16.41796875 0.31567383 C18.87786867 4.00552371 18.67154025 5.81932765 18.67866516 10.22399902 C18.68440348 11.28435073 18.68440348 11.28435073 18.69025773 12.36612368 C18.70059688 14.74065821 18.69659393 17.11495135 18.69262695 19.48950195 C18.69697289 21.18949101 18.70215564 22.88947811 18.70811462 24.58946228 C18.72152762 29.21126149 18.72208082 33.83297904 18.71955132 38.45479393 C18.71848332 42.30941254 18.72336051 46.1640145 18.72815675 50.01862955 C18.73925956 59.10935613 18.73968477 68.2000414 18.73364258 77.29077148 C18.72759892 86.67878414 18.73992198 96.06664708 18.76121265 105.45463419 C18.77880565 113.50733857 18.78483371 121.5599952 18.7815749 129.61271811 C18.77975846 134.42561506 18.78243417 139.23840518 18.79628944 144.05128479 C18.80882608 148.57552958 18.80696341 153.09954019 18.79387856 157.6237812 C18.79150422 159.28668355 18.79427794 160.94960218 18.80250168 162.61248589 C18.81289885 164.8777153 18.80492617 167.1421486 18.79219055 169.40734863 C18.79235829 170.67644829 18.79252604 171.94554794 18.79269886 173.25310516 C18.41796875 176.31567383 18.41796875 176.31567383 17.07927227 178.22516632 C14.42534246 179.96725038 12.01920179 179.66860549 8.88671875 179.64379883 C6.95892578 179.63606445 6.95892578 179.63606445 4.9921875 179.62817383 C4.32364746 179.61786133 3.65510742 179.60754883 2.96630859 179.59692383 C0.92526928 179.56578521 -1.11499672 179.55595267 -3.15625 179.55004883 C-13.11872511 179.47010921 -13.11872511 179.47010921 -16.58203125 178.31567383 C-16.58203125 120.23567383 -16.58203125 62.15567383 -16.58203125 2.31567383 C-11.05307959 -0.448802 -6.10179675 -0.01991641 0 0 Z " fill="#E29500" transform="translate(334.58203125,135.684326171875)"/>
<path d="M0 0 C0 9.9 0 19.8 0 30 C-3.13916115 31.56958058 -6.4813364 31.12221557 -9.92578125 31.09375 C-11.17274529 31.08837219 -11.17274529 31.08837219 -12.44490051 31.08288574 C-24.36059096 31.00979124 -36.27440289 30.7446888 -48.1875 30.5 C-56.375625 30.335 -64.56375 30.17 -73 30 C-73 54.09 -73 78.18 -73 103 C-76.19912001 104.06637334 -78.5137746 104.12921706 -81.875 104.1328125 C-83.02484375 104.13410156 -84.1746875 104.13539063 -85.359375 104.13671875 C-87.16148437 104.13091797 -87.16148437 104.13091797 -89 104.125 C-90.20140625 104.12886719 -91.4028125 104.13273437 -92.640625 104.13671875 C-93.79046875 104.13542969 -94.9403125 104.13414062 -96.125 104.1328125 C-97.70667969 104.13112061 -97.70667969 104.13112061 -99.3203125 104.12939453 C-102 104 -102 104 -105 103 C-105.15363033 89.86583981 -105.30181216 76.73163068 -105.4429636 63.59733009 C-105.50867279 57.49909719 -105.5762861 51.40089759 -105.64819336 45.30273438 C-105.71746873 39.42191116 -105.78181775 33.54105311 -105.84269524 27.66013718 C-105.86684236 25.41215418 -105.89278963 23.1641898 -105.92053413 20.91624832 C-105.95897666 17.77704024 -105.99112083 14.63782799 -106.02172852 11.49853516 C-106.03467453 10.56130112 -106.04762054 9.62406708 -106.06095886 8.65843201 C-106.06799835 7.80585312 -106.07503784 6.95327423 -106.08229065 6.07485962 C-106.09058679 5.33189447 -106.09888292 4.58892933 -106.10743046 3.82345009 C-106 2 -106 2 -105 0 C-92.19569484 -0.15391483 -79.39133737 -0.30209551 -66.58688164 -0.4429636 C-60.64121748 -0.50855479 -54.69558938 -0.57611818 -48.75 -0.64819336 C-43.01180611 -0.71768175 -37.27357536 -0.78198353 -31.53528214 -0.84269524 C-29.34642554 -0.866764 -27.15758864 -0.89269907 -24.9687767 -0.92053413 C-21.9022301 -0.95921202 -18.83568046 -0.9912438 -15.76904297 -1.02172852 C-14.41281578 -1.04114754 -14.41281578 -1.04114754 -13.02919006 -1.06095886 C-11.76731621 -1.0715181 -11.76731621 -1.0715181 -10.47994995 -1.08229065 C-9.75542067 -1.09058679 -9.03089138 -1.09888292 -8.28440666 -1.10743046 C-5.50144982 -0.97655432 -2.74812557 -0.45802093 0 0 Z " fill="#EB9201" transform="translate(271,211)"/>
<path d="M0 0 C0.97727554 -0.00563965 1.95455109 -0.0112793 2.96144104 -0.01708984 C4.03219879 -0.01304138 5.10295654 -0.00899292 6.2061615 -0.00482178 C7.89912102 -0.01007874 7.89912102 -0.01007874 9.62628174 -0.01544189 C13.3664307 -0.02426285 17.10639138 -0.01840905 20.84654236 -0.01165771 C23.43821245 -0.01300416 26.02988229 -0.01494452 28.62155151 -0.01745605 C34.05635715 -0.02040774 39.49109164 -0.01629781 44.92588806 -0.0067749 C51.21355924 0.00411503 57.50110078 0.00057996 63.78876883 -0.01042771 C69.83347563 -0.0205873 75.87811886 -0.01952489 81.9228344 -0.01366425 C84.49735469 -0.01232636 87.07187827 -0.01398029 89.64639473 -0.01862335 C93.23802192 -0.02367918 96.82939693 -0.01599174 100.42100525 -0.00482178 C102.03017822 -0.01089447 102.03017822 -0.01089447 103.67185974 -0.01708984 C104.64631546 -0.0114502 105.62077118 -0.00581055 106.62475586 0 C107.47443971 0.00075405 108.32412355 0.0015081 109.1995554 0.002285 C111.24888611 0.25396729 111.24888611 0.25396729 113.24888611 2.25396729 C113.49180603 4.78839111 113.49180603 4.78839111 113.47935486 7.96099854 C113.47742126 9.1050415 113.47548767 10.24908447 113.47349548 11.42779541 C113.46124939 12.62855713 113.4490033 13.82931885 113.43638611 15.06646729 C113.43541931 16.85020752 113.43541931 16.85020752 113.43443298 18.66998291 C113.40903488 23.69598458 113.29181033 28.33096169 112.24888611 33.25396729 C100.83301795 33.38610842 89.41713214 33.51659835 78.00122261 33.64511871 C72.69737465 33.70487839 67.39353375 33.76515586 62.08970642 33.82672119 C50.18831804 33.96456424 38.2869065 34.09285929 26.38523865 34.2041626 C23.1588589 34.23456429 19.93256948 34.26858876 16.70628357 34.30767822 C12.96794047 34.3528828 9.22959564 34.38314192 5.49107361 34.41021729 C4.45693329 34.42508179 3.42279297 34.43994629 2.35731506 34.45526123 C1.43836456 34.45908813 0.51941406 34.46291504 -0.42738342 34.46685791 C-1.20099213 34.47414917 -1.97460083 34.48144043 -2.77165222 34.48895264 C-4.75111389 34.25396729 -4.75111389 34.25396729 -7.75111389 32.25396729 C-8.13929749 29.30474854 -8.13929749 29.30474854 -8.14955139 25.56646729 C-8.15242157 24.90815918 -8.15529175 24.24985107 -8.1582489 23.57159424 C-8.16029065 22.17957703 -8.15475291 20.7875312 -8.14222717 19.39556885 C-8.12617267 17.26177982 -8.14206953 15.12988473 -8.16127014 12.99615479 C-8.15928773 11.64458809 -8.15544408 10.29302258 -8.14955139 8.94146729 C-8.1461676 7.70783447 -8.14278381 6.47420166 -8.13929749 5.20318604 C-8.0111969 4.22994385 -7.88309631 3.25670166 -7.75111389 2.25396729 C-4.53346716 0.10886946 -3.7009213 0.00328292 0 0 Z " fill="#DD8700" transform="translate(172.75111389160156,135.74603271484375)"/>
<path d="M0 0 C0.66 0 1.32 0 2 0 C2 39.93 2 79.86 2 121 C1.01 120.34 0.02 119.68 -1 119 C-1.3719368 116.95066929 -1.3719368 116.95066929 -1.36749268 114.37586975 C-1.37306183 113.40141403 -1.37863098 112.42695831 -1.3843689 111.42297363 C-1.37515411 110.35019165 -1.36593933 109.27740967 -1.35644531 108.17211914 C-1.35848969 107.04523178 -1.36053406 105.91834442 -1.36264038 104.75730896 C-1.36565889 101.01642862 -1.34713779 97.27598452 -1.328125 93.53515625 C-1.32506896 90.94445403 -1.32319166 88.35375018 -1.32244873 85.76304626 C-1.31783881 80.32641931 -1.30377602 74.88994869 -1.28125 69.45336914 C-1.25239197 62.47434177 -1.24202837 55.49541604 -1.2375679 48.51633549 C-1.23401504 43.16416796 -1.22360021 37.81202318 -1.21169281 32.45986748 C-1.20598341 29.88617582 -1.20122693 27.31248188 -1.19742584 24.7387867 C-1.19057136 21.14490865 -1.17694221 17.55112379 -1.16113281 13.95727539 C-1.16001495 12.88651764 -1.15889709 11.81575989 -1.15774536 10.71255493 C-1.15203522 9.73527939 -1.14632507 8.75800385 -1.14044189 7.75111389 C-1.13746723 6.90105302 -1.13449257 6.05099215 -1.13142776 5.17517185 C-1 3 -1 3 0 0 Z " fill="#F2970B" transform="translate(349,165)"/>
<path d="M0 0 C20.46 0 40.92 0 62 0 C62 9.24 62 18.48 62 28 C37.91 28 13.82 28 -11 28 C-11 27.67 -11 27.34 -11 27 C23.65 26.505 23.65 26.505 59 26 C58.505 25.01 58.505 25.01 58 24 C57.90110984 21.40558749 57.86105427 18.8439052 57.875 16.25 C57.87113281 15.54617187 57.86726563 14.84234375 57.86328125 14.1171875 C57.8709884 9.97073913 58.19077112 6.0846791 59 2 C57.75734375 2.01160156 56.5146875 2.02320313 55.234375 2.03515625 C36.81084596 2.14640315 18.41210433 1.5749482 0 1 C0 0.67 0 0.34 0 0 Z " fill="#D57400" transform="translate(208,212)"/>
<path d="M0 0 C1.97412109 0.2409668 1.97412109 0.2409668 4 1 C5.20066231 3.66998111 6.1002484 6.22279389 7 9 C7.83389923 11.29821526 8.67580192 13.59353423 9.5234375 15.88671875 C9.99275625 17.16841168 10.46149453 18.45031728 10.9296875 19.73242188 C11.1678418 20.3839624 11.40599609 21.03550293 11.65136719 21.70678711 C12.13048208 23.01821057 12.60932705 24.32973267 13.08789062 25.64135742 C13.79457351 27.57767825 14.50249044 29.51354274 15.2109375 31.44921875 C15.44125671 32.07972137 15.67157593 32.710224 15.90887451 33.35983276 C17.06218811 36.50257944 18.23964357 39.63362926 19.46582031 42.74853516 C19.92311523 43.91046387 20.38041016 45.07239258 20.8515625 46.26953125 C21.471521 47.81991089 21.471521 47.81991089 22.10400391 49.40161133 C23 52 23 52 23 55 C22.34 55 21.68 55 21 55 C20.65066406 54.07316406 20.30132812 53.14632812 19.94140625 52.19140625 C19.25884766 50.39509766 19.25884766 50.39509766 18.5625 48.5625 C18.11003906 47.36753906 17.65757813 46.17257813 17.19140625 44.94140625 C16.2855174 42.15554277 16.2855174 42.15554277 15 41 C14.7628125 39.80375 14.525625 38.6075 14.28125 37.375 C12.92278004 31.0254108 10.57708087 25.03378792 8.25927734 18.98583984 C7.49230125 16.97986444 6.73983932 14.96882687 5.98828125 12.95703125 C5.50345824 11.67936309 5.01781172 10.40200704 4.53125 9.125 C4.09361328 7.97257813 3.65597656 6.82015625 3.20507812 5.6328125 C2.27653062 2.87695 2.27653062 2.87695 0 2 C-0.12133301 2.87188965 -0.24266602 3.7437793 -0.36767578 4.64208984 C-0.98176138 7.9031452 -1.88650738 10.65166218 -3.1171875 13.7265625 C-3.77303833 15.37930176 -3.77303833 15.37930176 -4.44213867 17.06542969 C-4.91498291 18.24008789 -5.38782715 19.41474609 -5.875 20.625 C-6.61433093 22.48311531 -7.35365182 24.34123469 -8.09239197 26.19958496 C-8.86503942 28.14123848 -9.64018041 30.08188401 -10.41552734 32.02246094 C-12.78560994 37.96240835 -15.11691096 43.91760201 -17.45098877 49.87176514 C-18.62598785 52.86822214 -19.80332737 55.86375908 -20.98046875 58.859375 C-21.56671021 60.35162598 -21.56671021 60.35162598 -22.16479492 61.87402344 C-22.4404126 62.5755957 -22.71603027 63.27716797 -23 64 C-24.16841112 60.49476665 -23.81452229 59.85228559 -22.48828125 56.53515625 C-22.14216797 55.65150391 -21.79605469 54.76785156 -21.43945312 53.85742188 C-20.88161133 52.47393555 -20.88161133 52.47393555 -20.3125 51.0625 C-18.09446774 45.47889776 -15.93869208 39.91237018 -14.0859375 34.1953125 C-11.81533177 27.26814517 -9.08519597 20.55143657 -6.3125 13.8125 C-5.80895395 12.57498809 -5.30569736 11.33735837 -4.80273438 10.09960938 C-1.13375235 1.13375235 -1.13375235 1.13375235 0 0 Z " fill="#1F0F02" transform="translate(77,132)"/>
<path d="M0 0 C8.9886965 -0.02323137 17.97738256 -0.04096994 26.9661026 -0.05181217 C31.14049851 -0.05701745 35.31487378 -0.06407209 39.48925781 -0.07543945 C43.52225445 -0.08635233 47.55523131 -0.09229456 51.58824158 -0.09487724 C53.12231253 -0.09671641 54.65638247 -0.1003077 56.19044495 -0.10573006 C72.26957907 -0.16027293 72.26957907 -0.16027293 78 1 C78.495 1.99 78.495 1.99 79 3 C69.2351033 3.13284629 59.47017854 3.2633504 49.7052145 3.39115143 C45.16714928 3.4506118 40.629096 3.51077317 36.09106445 3.57275391 C13.72579711 3.8776429 -8.63243069 4.08110917 -31 4 C-31 3.67 -31 3.34 -31 3 C-21.1 3 -11.2 3 -1 3 C-0.67 2.01 -0.34 1.02 0 0 Z " fill="#F28400" transform="translate(198,164)"/>
<path d="M0 0 C1.44670158 4.34010474 0.06089589 7.82195805 -1.8817749 11.81030273 C-2.36907074 12.73758179 -2.36907074 12.73758179 -2.86621094 13.68359375 C-5.04328078 17.97641449 -6.77689208 22.36705772 -8.453125 26.875 C-8.75820984 27.68493408 -9.06329468 28.49486816 -9.37762451 29.3293457 C-10.33913511 31.88473005 -11.29466294 34.44230214 -12.25 37 C-12.90585362 38.74624267 -13.56210001 40.49233788 -14.21875 42.23828125 C-15.8177781 46.49024233 -17.40867435 50.74511858 -19 55 C-8.44 55 2.12 55 13 55 C13.66 53.02 14.32 51.04 15 49 C16 52 16 52 15.25 54.125 C14 56 14 56 11 57 C8.64319787 57.08397157 6.28405919 57.10728187 3.92578125 57.09765625 C2.90003242 57.09553383 2.90003242 57.09553383 1.8535614 57.09336853 C-0.32683722 57.08777876 -2.50713251 57.07522822 -4.6875 57.0625 C-6.16731622 57.05748367 -7.64713406 57.052921 -9.12695312 57.04882812 C-12.75133557 57.03781271 -16.3756577 57.02055512 -20 57 C-21.1802793 53.58016633 -20.83082853 51.72617764 -19.55078125 48.37890625 C-19.20265381 47.45658203 -18.85452637 46.53425781 -18.49584961 45.58398438 C-18.10534424 44.58689453 -17.71483887 43.58980469 -17.3125 42.5625 C-16.91619385 41.52802734 -16.5198877 40.49355469 -16.11157227 39.42773438 C-10.99091924 26.18557865 -5.50043731 13.08787529 0 0 Z " fill="#241405" transform="translate(28,258)"/>
<path d="M0 0 C24.255 0.495 24.255 0.495 49 1 C49 1.33 49 1.66 49 2 C44.71 2 40.42 2 36 2 C36 2.66 36 3.32 36 4 C34.37585622 4.19477739 32.75063577 4.38059458 31.125 4.5625 C30.22007812 4.66691406 29.31515625 4.77132812 28.3828125 4.87890625 C26 5 26 5 24 4 C22.329375 4.2784375 22.329375 4.2784375 20.625 4.5625 C16.7987944 5.02428343 16.18297948 4.69758906 13 3 C11.32345271 3.27942455 9.65391846 3.60828247 8 4 C7.34 3.67 6.68 3.34 6 3 C4.02 3.99 4.02 3.99 2 5 C1.67 12.92 1.34 20.84 1 29 C0.67 29 0.34 29 0 29 C0 19.43 0 9.86 0 0 Z " fill="#FFA300" transform="translate(167,138)"/>
<path d="M0 0 C2.91955796 1.45977898 3.11667786 3.3615545 4.28515625 6.37890625 C4.72956055 7.517229 5.17396484 8.65555176 5.63183594 9.82836914 C6.10395508 11.06063232 6.57607422 12.29289551 7.0625 13.5625 C7.55075151 14.82622781 8.03936146 16.08981719 8.52832031 17.35327148 C9.53084112 19.9486014 10.52819806 22.5458404 11.52197266 25.14453125 C12.92062571 28.7999897 14.34070952 32.44692125 15.76171875 36.09375 C16.59216654 38.2496071 17.4216433 40.40583857 18.25 42.5625 C18.64453369 43.5719165 19.03906738 44.58133301 19.44555664 45.62133789 C19.7986792 46.55196045 20.15180176 47.48258301 20.515625 48.44140625 C20.82790039 49.25295166 21.14017578 50.06449707 21.46191406 50.90063477 C22 53 22 53 21 56 C20.63648438 55.23816406 20.63648438 55.23816406 20.265625 54.4609375 C19.93046875 53.77257812 19.5953125 53.08421875 19.25 52.375 C18.76273438 51.36566406 18.76273438 51.36566406 18.265625 50.3359375 C16.97687325 47.84895393 16.97687325 47.84895393 14.984375 45.13671875 C12.92115525 41.87536942 11.96593358 39.15893159 11 35.4375 C10.66871094 34.2103125 10.33742187 32.983125 9.99609375 31.71875 C9.66738281 30.4915625 9.33867187 29.264375 9 28 C6.69862356 20.02437964 4.04619983 12.28676886 0.953125 4.58203125 C0 2 0 2 0 0 Z " fill="#633403" transform="translate(126,254)"/>
<path d="M0 0 C23.68880957 -0.13673498 47.32495675 0.17728131 71 1 C71 1.33 71 1.66 71 2 C41.68494516 3.84247258 41.68494516 3.84247258 38 2 C37.67 2.66 37.34 3.32 37 4 C37 3.34 37 2.68 37 2 C35.06060547 2.12568359 35.06060547 2.12568359 33.08203125 2.25390625 C7.2292961 3.81492945 7.2292961 3.81492945 0 0 Z " fill="#F98C00" transform="translate(172,212)"/>
<path d="M0 0 C0.99 0.33 1.98 0.66 3 1 C4.16603655 3.7898275 5.14084493 6.50312831 6.0625 9.375 C6.66636135 11.18456726 7.27331169 12.99310568 7.8828125 14.80078125 C8.38022949 16.27925537 8.38022949 16.27925537 8.88769531 17.78759766 C11.37195395 24.96228493 14.10377454 32.0503802 16.79907227 39.14794922 C17.21471436 40.25541504 17.63035645 41.36288086 18.05859375 42.50390625 C18.43298584 43.49205322 18.80737793 44.4802002 19.19311523 45.49829102 C20 48 20 48 20 51 C19.34 51 18.68 51 18 51 C17.65066406 50.07316406 17.30132812 49.14632812 16.94140625 48.19140625 C16.25884766 46.39509766 16.25884766 46.39509766 15.5625 44.5625 C15.11003906 43.36753906 14.65757813 42.17257813 14.19140625 40.94140625 C13.2855174 38.15554277 13.2855174 38.15554277 12 37 C11.75507812 35.77152344 11.51015625 34.54304688 11.2578125 33.27734375 C9.86877465 26.77154403 7.32977303 20.72693704 4.875 14.5625 C3.95281043 12.23162141 3.03338792 9.8996455 2.1171875 7.56640625 C1.71097168 6.54490479 1.30475586 5.52340332 0.88623047 4.47094727 C0 2 0 2 0 0 Z " fill="#301502" transform="translate(80,136)"/>
<path d="M0 0 C12.21 0 24.42 0 37 0 C33 3 33 3 30.94921875 3.0390625 C30.20285156 2.90242187 29.45648438 2.76578125 28.6875 2.625 C22.89862494 1.81764947 17.41474642 2.3046487 11.61328125 2.84375 C7.89902708 3.0043664 4.6361064 2.76838475 1 2 C0.67 1.34 0.34 0.68 0 0 Z " fill="#FFAC00" transform="translate(241,140)"/>
<path d="M0 0 C2.98095703 -0.34057617 2.98095703 -0.34057617 6.7578125 -0.29296875 C7.42086395 -0.28872391 8.08391541 -0.28447906 8.76705933 -0.28010559 C10.88678441 -0.26329971 13.00556188 -0.22564701 15.125 -0.1875 C16.56118419 -0.17245549 17.99738328 -0.15876668 19.43359375 -0.14648438 C22.95603764 -0.1133909 26.47792636 -0.0615968 30 0 C29.67 0.99 29.34 1.98 29 3 C18.77 3 8.54 3 -2 3 C-1.34 2.01 -0.68 1.02 0 0 Z " fill="#FFAE00" transform="translate(205,140)"/>
<path d="M0 0 C1.80375801 4.18217656 0.01076482 7.80759479 -1.421875 11.8359375 C-1.68252747 12.59290924 -1.94317993 13.34988098 -2.21173096 14.12979126 C-2.76508022 15.73018515 -3.32353922 17.32882013 -3.88671875 18.92578125 C-4.74315408 21.35557742 -5.58384654 23.79036448 -6.421875 26.2265625 C-6.96261982 27.7841745 -7.504258 29.34147671 -8.046875 30.8984375 C-8.29701355 31.62050385 -8.5471521 32.34257019 -8.80487061 33.08651733 C-10.26902727 37.22384799 -11.94697272 41.10808823 -14 45 C-15.13555377 41.5933387 -14.85394794 40.7055188 -13.8125 37.375 C-13.57144531 36.57835937 -13.33039062 35.78171875 -13.08203125 34.9609375 C-12.19687536 32.53874196 -11.22427263 30.25861976 -10.15234375 27.91796875 C-7.65469663 22.38198838 -5.70722613 16.68232113 -3.75 10.9375 C-3.38648438 9.88111328 -3.02296875 8.82472656 -2.6484375 7.73632812 C-1.76203389 5.15875972 -0.87930443 2.57999696 0 0 Z " fill="#3E1C03" transform="translate(65,245)"/>
<path d="M0 0 C14 1 14 1 16 2 C16 2.66 16 3.32 16 4 C12 4 12 4 9 3.375 C5.71109365 2.68220301 5.71109365 2.68220301 2 5 C1.67 12.92 1.34 20.84 1 29 C0.67 29 0.34 29 0 29 C0 19.43 0 9.86 0 0 Z " fill="#F5A50F" transform="translate(167,138)"/>
<path d="M0 0 C7.92 0 15.84 0 24 0 C24.33 8.58 24.66 17.16 25 26 C22 23 22 23 21.671875 19.41796875 C21.68248916 18.007612 21.70909908 16.59730351 21.75 15.1875 C21.75515625 14.48818359 21.7603125 13.78886719 21.765625 13.06835938 C21.82818877 8.88831732 22.30648145 5.16111131 23 1 C15.41 1 7.82 1 0 1 C0 0.67 0 0.34 0 0 Z " fill="#FD8200" transform="translate(244,213)"/>
<path d="M0 0 C1.32 0.66 2.64 1.32 4 2 C3.34 2 2.68 2 2 2 C2.33 4.64 2.66 7.28 3 10 C1 7 1 7 0 5 C-1.32 9.29 -2.64 13.58 -4 18 C-4.33 18 -4.66 18 -5 18 C-5.33 15.69 -5.66 13.38 -6 11 C-5.34 10.67 -4.68 10.34 -4 10 C-3.12884713 7.91918209 -3.12884713 7.91918209 -2.4375 5.5 C-1.09111617 1.09111617 -1.09111617 1.09111617 0 0 Z " fill="#A35903" transform="translate(78,207)"/>
<path d="M0 0 C0.33 0.99 0.66 1.98 1 3 C3.81824192 4.40912096 6.17251282 4.11183553 9.3203125 4.09765625 C11.20556641 4.09282227 11.20556641 4.09282227 13.12890625 4.08789062 C14.44761719 4.07951172 15.76632813 4.07113281 17.125 4.0625 C18.46484211 4.05748489 19.804686 4.05292201 21.14453125 4.04882812 C24.42973206 4.03701086 27.71484397 4.02053617 31 4 C31 4.66 31 5.32 31 6 C20.44 6 9.88 6 -1 6 C-0.67 4.02 -0.34 2.04 0 0 Z " fill="#E88D03" transform="translate(10,307)"/>
<path d="M0 0 C0.33 0.66 0.66 1.32 1 2 C1.66 2 2.32 2 3 2 C3.8394882 4.10171867 4.67139656 6.20646625 5.5 8.3125 C5.9640625 9.48425781 6.428125 10.65601563 6.90625 11.86328125 C8 15 8 15 8 18 C7.34 18 6.68 18 6 18 C5.18243762 15.93950145 4.37115266 13.87651147 3.5625 11.8125 C2.88380859 10.08966797 2.88380859 10.08966797 2.19140625 8.33203125 C1.18906699 5.52876767 0.47987205 2.92887424 0 0 Z " fill="#894C06" transform="translate(92,169)"/>
<path d="M0 0 C1.3274855 3.98245651 -0.00092171 6.44789543 -1.4375 10.1875 C-1.80198242 11.16879883 -1.80198242 11.16879883 -2.17382812 12.16992188 C-2.7743293 13.78303286 -3.38609203 15.3919435 -4 17 C-4.33 17 -4.66 17 -5 17 C-5 13.37 -5 9.74 -5 6 C-4.34 6 -3.68 6 -3 6 C-3 4.68 -3 3.36 -3 2 C-2.01 1.34 -1.02 0.68 0 0 Z " fill="#8D4E05" transform="translate(49,290)"/>
<path d="M0 0 C1.64426374 4.93279121 -0.47154982 8.88212461 -2.625 13.4375 C-3.305625 14.7059375 -3.305625 14.7059375 -4 16 C-5.16161779 13.13421241 -4.9946154 11.98369837 -4.00390625 8.984375 C-3.52824219 7.91703125 -3.05257813 6.8496875 -2.5625 5.75 C-2.08941406 4.67234375 -1.61632812 3.5946875 -1.12890625 2.484375 C-0.75636719 1.66453125 -0.38382813 0.8446875 0 0 Z " fill="#513104" transform="translate(28,258)"/>
<path d="M0 0 C0.99 0.33 1.98 0.66 3 1 C3.33 2.98 3.66 4.96 4 7 C3.34 7 2.68 7 2 7 C1.67 6.34 1.34 5.68 1 5 C0.67 5.66 0.34 6.32 0 7 C-0.66 6.67 -1.32 6.34 -2 6 C-1.34 4.02 -0.68 2.04 0 0 Z " fill="#D38205" transform="translate(77,134)"/>
<path d="M0 0 C1.3340394 4.00211819 0.40012984 6.07963644 -1 10 C-2.625 11.9375 -2.625 11.9375 -4 13 C-3.40895235 8.15340923 -2.02055843 4.39251833 0 0 Z " fill="#533204" transform="translate(33,245)"/>
<path d="M0 0 C0.66 0 1.32 0 2 0 C0.515 5.445 0.515 5.445 -1 11 C-1.33 11 -1.66 11 -2 11 C-2.33 8.69 -2.66 6.38 -3 4 C-2.34 3.67 -1.68 3.34 -1 3 C-0.67 2.01 -0.34 1.02 0 0 Z " fill="#8D4B04" transform="translate(75,214)"/>
<path d="M0 0 C2.97903734 2.97903734 4 5.80285329 4 10 C3.34 10 2.68 10 2 10 C2 9.01 2 8.02 2 7 C1.34 7 0.68 7 0 7 C-1.04449911 3.86650268 -0.93423645 3.01031744 0 0 Z " fill="#D47B03" transform="translate(81,141)"/>
<path d="M0 0 C0.99 0.33 1.98 0.66 3 1 C2.34 3.97 1.68 6.94 1 10 C0.67 10 0.34 10 0 10 C0 6.7 0 3.4 0 0 Z " fill="#975003" transform="translate(70,224)"/>
<path d="M0 0 C2.31 0.33 4.62 0.66 7 1 C5.6875 2.5 5.6875 2.5 4 4 C3.01 4 2.02 4 1 4 C0.67 2.68 0.34 1.36 0 0 Z " fill="#F39101" transform="translate(115,309)"/>
<path d="M0 0 C0.6875 1.75 0.6875 1.75 1 4 C-0.4375 6.25 -0.4375 6.25 -2 8 C-2.33 6.02 -2.66 4.04 -3 2 C-2.01 1.34 -1.02 0.68 0 0 Z " fill="#CE7103" transform="translate(43,303)"/>
</svg>
